<svg width="97" height="70" viewBox="0 0 97 70" fill="none" xmlns="http://www.w3.org/2000/svg">
<rect width="97" height="70" fill="white"/>
<path d="M12.5423 58V14.7057H21.6193C23.9152 14.7057 25.6125 15.1157 26.7113 15.9357C27.81 16.7393 28.5234 17.961 28.8514 19.6009C29.1958 21.2245 29.368 23.2744 29.368 25.7507C29.368 28.4238 29.0974 30.5475 28.5562 32.1218C28.015 33.6962 26.9655 34.7129 25.4075 35.1721C26.1947 35.3033 26.8425 35.6395 27.3509 36.1807C27.8756 36.7219 28.2856 37.5664 28.5808 38.7144C28.876 39.8623 29.081 41.4039 29.1958 43.339C29.327 45.2577 29.3926 47.6766 29.3926 50.5957C29.3926 50.8745 29.3926 51.2763 29.3926 51.801C29.3926 52.3258 29.4008 52.8998 29.4172 53.523C29.4336 54.1462 29.45 54.7611 29.4664 55.3679C29.4992 55.9747 29.5402 56.5159 29.5894 56.9914C29.6386 57.4506 29.7042 57.7868 29.7862 58H24.7188C24.6532 57.8524 24.5958 57.5244 24.5466 57.016C24.4974 56.5077 24.4564 55.8353 24.4236 54.9989C24.3908 54.1626 24.3662 53.1704 24.3498 52.0224C24.3334 50.8581 24.3252 49.5625 24.3252 48.1358C24.3252 46.6927 24.3252 45.1183 24.3252 43.4128C24.3252 41.7728 24.2514 40.5265 24.1038 39.6737C23.9726 38.8046 23.6446 38.206 23.1198 37.878C22.6115 37.5336 21.7915 37.3286 20.6599 37.263L17.6343 37.0908V58H12.5423ZM17.6343 33.3518H20.8813C21.8161 33.3518 22.5295 33.1714 23.0214 32.8106C23.5298 32.4334 23.8742 31.6955 24.0546 30.5967C24.235 29.4815 24.3252 27.817 24.3252 25.6031V25.3079C24.3252 23.4712 24.235 22.0854 24.0546 21.1507C23.8906 20.1995 23.5626 19.5599 23.0706 19.232C22.5787 18.904 21.8325 18.74 20.8321 18.74H17.6343V33.3518Z" fill="black"/>
<path d="M73.6741 58V39.8213L66.1468 14.7057H71.1896L76.2078 32.294H76.3062L80.6602 14.7057H85.7522L78.7661 39.8213V58H73.6741Z" fill="black"/>
<path d="M37.6467 52.5L47.6296 19.3592L57.6125 52.5H37.6467Z" stroke="black" stroke-width="5.18518"/>
</svg>
