<svg width="144" height="88" viewBox="0 0 144 88" fill="none" xmlns="http://www.w3.org/2000/svg">
<path d="M6.4351 88V41.1241H0.708452V36.0469H17.8589V41.1241H12.516V88H6.4351ZM27.3817 88V36.0469H38.2741C41.0292 36.0469 43.066 36.5389 44.3845 37.5228C45.703 38.4871 46.5591 39.9532 46.9526 41.9211C47.3659 43.8694 47.5725 46.3293 47.5725 49.3008C47.5725 52.5085 47.2478 55.057 46.5984 56.9462C45.949 58.8354 44.6895 60.0555 42.82 60.6065C43.7646 60.764 44.5419 61.1674 45.152 61.8168C45.7817 62.4662 46.2737 63.4797 46.6279 64.8572C46.9822 66.2348 47.2281 68.0846 47.3659 70.4068C47.5233 72.7093 47.602 75.6119 47.602 79.1148C47.602 79.4494 47.602 79.9315 47.602 80.5613C47.602 81.191 47.6119 81.8798 47.6316 82.6276C47.6512 83.3754 47.6709 84.1134 47.6906 84.8415C47.73 85.5696 47.7792 86.219 47.8382 86.7897C47.8972 87.3407 47.976 87.7442 48.0744 88H41.9935C41.9148 87.8229 41.8459 87.4293 41.7868 86.8192C41.7278 86.2092 41.6786 85.4023 41.6392 84.3987C41.5999 83.3951 41.5704 82.2045 41.5507 80.8269C41.531 79.4297 41.5212 77.875 41.5212 76.163C41.5212 74.4312 41.5212 72.542 41.5212 70.4953C41.5212 68.5274 41.4326 67.0318 41.2555 66.0085C41.0981 64.9655 40.7045 64.2472 40.0747 63.8536C39.4647 63.4403 38.4807 63.1944 37.1229 63.1156L33.4921 62.909V88H27.3817ZM33.4921 58.4221H37.3885C38.5103 58.4221 39.3663 58.2057 39.9567 57.7727C40.5667 57.3201 40.98 56.4345 41.1965 55.116C41.4129 53.7778 41.5212 51.7804 41.5212 49.1237V48.7695C41.5212 46.5654 41.4129 44.9025 41.1965 43.7808C40.9997 42.6394 40.6061 41.8719 40.0157 41.4783C39.4253 41.0848 38.5299 40.888 37.3295 40.888H33.4921V58.4221Z" fill="white"/>
<path d="M102.809 88V66.1856L93.7761 36.0469H99.8275L105.849 57.1528H105.967L111.192 36.0469H117.303L108.919 66.1856V88H102.809ZM126.56 88V36.0469H132.67V82.9523H142.264V88H126.56Z" fill="white"/>
<path d="M59.5761 81L71.5556 41.231L83.535 81H59.5761Z" stroke="white" stroke-width="6.22222"/>
</svg>
