<svg width="120" height="70" viewBox="0 0 120 70" fill="none" xmlns="http://www.w3.org/2000/svg">
<path d="M5.36259 58V18.9368H0.590376V14.7057H14.8824V18.9368H10.43V58H5.36259ZM22.818 58V14.7057H31.8951C34.191 14.7057 35.8883 15.1157 36.9871 15.9357C38.0858 16.7393 38.7992 17.961 39.1272 19.6009C39.4716 21.2245 39.6438 23.2744 39.6438 25.7507C39.6438 28.4238 39.3732 30.5475 38.832 32.1218C38.2908 33.6962 37.2413 34.7129 35.6833 35.1721C36.4705 35.3033 37.1183 35.6395 37.6267 36.1807C38.1514 36.7219 38.5614 37.5664 38.8566 38.7144C39.1518 39.8623 39.3568 41.4039 39.4716 43.339C39.6028 45.2577 39.6684 47.6766 39.6684 50.5957C39.6684 50.8745 39.6684 51.2763 39.6684 51.801C39.6684 52.3258 39.6766 52.8998 39.693 53.523C39.7094 54.1462 39.7258 54.7611 39.7422 55.3679C39.775 55.9747 39.816 56.5159 39.8652 56.9914C39.9144 57.4506 39.98 57.7868 40.062 58H34.9946C34.929 57.8524 34.8716 57.5244 34.8224 57.016C34.7732 56.5077 34.7322 55.8353 34.6994 54.9989C34.6666 54.1626 34.642 53.1704 34.6256 52.0224C34.6092 50.8581 34.601 49.5625 34.601 48.1358C34.601 46.6927 34.601 45.1183 34.601 43.4128C34.601 41.7728 34.5272 40.5265 34.3796 39.6737C34.2484 38.8046 33.9204 38.206 33.3956 37.878C32.8872 37.5336 32.0673 37.3286 30.9357 37.263L27.91 37.0908V58H22.818ZM27.91 33.3518H31.1571C32.0919 33.3518 32.8052 33.1714 33.2972 32.8106C33.8056 32.4334 34.15 31.6955 34.3304 30.5967C34.5108 29.4815 34.601 27.817 34.601 25.6031V25.3079C34.601 23.4712 34.5108 22.0854 34.3304 21.1507C34.1664 20.1995 33.8384 19.5599 33.3464 19.232C32.8544 18.904 32.1083 18.74 31.1079 18.74H27.91V33.3518Z" fill="white"/>
<path d="M85.6741 58V39.8213L78.1468 14.7057H83.1896L88.2078 32.294H88.3061L92.6602 14.7057H97.7522L90.7661 39.8213V58H85.6741ZM105.466 58V14.7057H110.558V53.7936H118.553V58H105.466Z" fill="white"/>
<path d="M49.6467 52.5L59.6296 19.3592L69.6125 52.5H49.6467Z" stroke="white" stroke-width="5.18518"/>
</svg>
