<svg width="49" height="30" viewBox="0 0 49 30" fill="none" xmlns="http://www.w3.org/2000/svg">
<path d="M2.52139 29.0374V13.315H0.600654V11.6121H6.35297V13.315H4.56094V29.0374H2.52139ZM9.54695 29.0374V11.6121H13.2003C14.1244 11.6121 14.8075 11.7771 15.2498 12.1071C15.692 12.4305 15.9791 12.9223 16.1111 13.5823C16.2497 14.2358 16.319 15.0608 16.319 16.0575C16.319 17.1334 16.2101 17.9881 15.9923 18.6218C15.7745 19.2554 15.3521 19.6647 14.725 19.8495C15.0418 19.9023 15.3026 20.0376 15.5072 20.2554C15.7184 20.4732 15.8834 20.8132 16.0022 21.2752C16.121 21.7372 16.2035 22.3577 16.2497 23.1365C16.3025 23.9088 16.3289 24.8824 16.3289 26.0572C16.3289 26.1694 16.3289 26.3312 16.3289 26.5424C16.3289 26.7536 16.3322 26.9846 16.3388 27.2354C16.3454 27.4862 16.352 27.7338 16.3586 27.978C16.3718 28.2222 16.3883 28.44 16.4081 28.6314C16.4279 28.8162 16.4544 28.9515 16.4874 29.0374H14.4478C14.4214 28.9779 14.3983 28.8459 14.3785 28.6413C14.3587 28.4367 14.3422 28.1661 14.329 27.8295C14.3158 27.4928 14.3059 27.0935 14.2993 26.6315C14.2927 26.1628 14.2894 25.6414 14.2894 25.0672C14.2894 24.4863 14.2894 23.8527 14.2894 23.1662C14.2894 22.5062 14.2597 22.0045 14.2003 21.6613C14.1475 21.3115 14.0155 21.0706 13.8043 20.9386C13.5996 20.8 13.2696 20.7174 12.8142 20.691L11.5964 20.6217V29.0374H9.54695ZM11.5964 19.1168H12.9033C13.2795 19.1168 13.5666 19.0442 13.7647 18.899C13.9693 18.7472 14.1079 18.4502 14.1805 18.0079C14.2531 17.5591 14.2894 16.8892 14.2894 15.9981V15.8793C14.2894 15.14 14.2531 14.5823 14.1805 14.2061C14.1145 13.8232 13.9825 13.5658 13.7845 13.4338C13.5864 13.3018 13.2861 13.2358 12.8835 13.2358H11.5964V19.1168Z" fill="black"/>
<path d="M34.8455 29.0374V21.7207L31.8159 11.6121H33.8455L35.8653 18.6911H35.9049L37.6573 11.6121H39.7067L36.8949 21.7207V29.0374H34.8455ZM42.8116 29.0374V11.6121H44.8611V27.3443H48.0788V29.0374H42.8116Z" fill="black"/>
<path d="M20.3451 27.1677L24.363 13.829L28.381 27.1677H20.3451Z" stroke="black" stroke-width="2.08696"/>
</svg>
